<?xml version="1.0" standalone="no"?>
<!DOCTYPE svg PUBLIC "-//W3C//DTD SVG 20010904//EN"
 "http://www.w3.org/TR/2001/REC-SVG-20010904/DTD/svg10.dtd">
<svg version="1.0" xmlns="http://www.w3.org/2000/svg"
 width="700.000000pt" height="700.000000pt" viewBox="0 0 700.000000 700.000000"
 preserveAspectRatio="xMidYMid meet">
<metadata>
Created by potrace 1.14, written by Peter Selinger 2001-2017
</metadata>
<g transform="translate(0.000000,700.000000) scale(0.100000,-0.100000)"
fill="#000000" stroke="none">
<path d="M0 3500 l0 -3500 3500 0 3500 0 0 3500 0 3500 -3500 0 -3500 0 0
-3500z m3158 1413 c191 -348 349 -633 353 -633 3 0 166 286 363 635 l358 635
475 0 c377 0 473 -3 467 -12 -4 -7 -271 -429 -594 -938 -322 -509 -590 -931
-594 -938 -5 -8 224 -381 624 -1018 347 -553 634 -1012 637 -1020 4 -12 -62
-14 -492 -12 l-498 3 -371 666 c-204 367 -375 663 -379 659 -5 -4 -183 -304
-397 -666 l-388 -659 -477 -3 c-381 -2 -476 0 -472 10 2 7 286 459 630 1005
l626 992 -599 961 c-330 529 -600 964 -600 966 0 2 221 3 491 2 l490 -3 347
-632z"/>
</g>
</svg>
